<?xml version="1.0" standalone="no"?>
<!DOCTYPE svg PUBLIC "-//W3C//DTD SVG 20010904//EN"
 "http://www.w3.org/TR/2001/REC-SVG-20010904/DTD/svg10.dtd">
<svg version="1.0" xmlns="http://www.w3.org/2000/svg"
 width="276.000000pt" height="276.000000pt" viewBox="0 0 276.000000 276.000000"
 preserveAspectRatio="xMidYMid meet">
<metadata>
Created by potrace 1.14, written by Peter Selinger 2001-2017
</metadata>
<g transform="translate(0.000000,276.000000) scale(0.100000,-0.100000)"
fill="#000000" stroke="none">
<path d="M1310 2168 c-177 -18 -348 -99 -479 -227 -81 -79 -175 -241 -186
-318 -3 -21 -9 -54 -13 -73 -13 -53 -5 -229 12 -280 l15 -45 -7 40 c-8 52 -8
198 1 250 18 110 74 235 153 335 102 130 260 230 419 266 69 15 241 16 311 1
199 -42 376 -164 479 -329 19 -31 35 -61 35 -67 0 -6 5 -11 11 -11 22 0 -78
163 -143 234 -108 117 -220 181 -371 211 -97 19 -148 22 -237 13z"/>
<path d="M1010 1504 c-201 -168 -375 -313 -387 -324 -12 -10 -76 -64 -143
-119 -67 -56 -117 -101 -112 -101 5 0 26 7 45 15 41 17 165 51 217 60 19 3 36
8 39 11 2 2 23 -26 45 -63 112 -185 297 -318 503 -363 333 -73 672 73 845 363
22 37 43 67 47 67 3 0 22 -4 41 -10 19 -5 49 -12 67 -15 17 -3 58 -13 92 -24
34 -10 61 -15 61 -10 0 5 -3 9 -8 9 -4 0 -18 10 -32 23 -14 12 -60 51 -102 86
-43 35 -78 67 -78 72 0 4 4 30 10 56 21 103 16 282 -10 345 -7 18 -8 14 -4
-17 16 -112 10 -224 -17 -322 l-11 -43 -82 68 c-44 37 -92 76 -105 87 -13 11
-32 27 -41 35 -8 9 -31 28 -51 42 l-35 27 1 -185 c0 -177 1 -184 20 -185 11
-1 29 -3 40 -4 11 -2 45 -6 75 -10 30 -3 70 -9 88 -13 l34 -7 -50 -75 c-108
-166 -277 -281 -477 -326 -69 -16 -230 -13 -310 5 -189 43 -397 182 -499 334
-19 28 -34 53 -33 54 2 1 16 4 32 7 17 3 44 8 61 11 59 10 166 22 260 30 66 5
273 14 355 15 l36 0 0 330 1 330 -28 20 c-16 11 -30 20 -32 19 -1 0 -167 -137
-368 -305z"/>
<path d="M1490 1416 c0 -339 -7 -307 65 -309 l30 -1 1 264 c0 154 -4 270 -10
278 -5 7 -26 26 -48 43 l-38 31 0 -306z"/>
<path d="M1640 1346 l0 -246 38 -1 c20 0 45 -2 55 -4 16 -3 17 12 17 204 l0
208 -46 39 c-26 21 -51 41 -55 42 -5 2 -9 -107 -9 -242z"/>
</g>
</svg>
